<svg xmlns="http://www.w3.org/2000/svg" xmlns:xlink="http://www.w3.org/1999/xlink" width="236.351" height="100.455" viewBox="0 0 236.351 100.455">
  <defs>
    <style>
      .cls-1, .cls-6, .cls-9 {
        fill: #fff;
      }

      .cls-1 {
        stroke: rgba(255,255,255,0.57);
        stroke-width: 0.5px;
      }

      .cls-2 {
        fill: #f25757;
      }

      .cls-3 {
        fill: #dedede;
      }

      .cls-4 {
        fill: #e71d36;
      }

      .cls-5 {
        fill: #d7d7d7;
      }

      .cls-7 {
        fill: #2ec4b6;
      }

      .cls-8 {
        fill: #ff9f1c;
      }

      .cls-9 {
        font-size: 39px;
        font-family: Roboto-Regular, Roboto;
      }

      .cls-10 {
        filter: url(#entastico);
      }

      .cls-11 {
        filter: url(#Path_473);
      }

      .cls-12 {
        filter: url(#Path_344);
      }

      .cls-13 {
        filter: url(#Path_357);
      }

      .cls-14 {
        filter: url(#Path_334);
      }

      .cls-15 {
        filter: url(#Path_341);
      }
    </style>
    <filter id="Path_341" x="8.152" y="3.564" width="70.309" height="96.891" filterUnits="userSpaceOnUse">
      <feOffset dy="3" input="SourceAlpha"/>
      <feGaussianBlur stdDeviation="1" result="blur"/>
      <feFlood flood-opacity="0.322"/>
      <feComposite operator="in" in2="blur"/>
      <feComposite in="SourceGraphic"/>
    </filter>
    <filter id="Path_334" x="5.715" y="43.133" width="18" height="18" filterUnits="userSpaceOnUse">
      <feOffset dy="3" input="SourceAlpha"/>
      <feGaussianBlur stdDeviation="3" result="blur-2"/>
      <feFlood flood-opacity="0.161"/>
      <feComposite operator="in" in2="blur-2"/>
      <feComposite in="SourceGraphic"/>
    </filter>
    <filter id="Path_357" x="25.359" y="17.751" width="26.229" height="26.229" filterUnits="userSpaceOnUse">
      <feOffset dy="3" input="SourceAlpha"/>
      <feGaussianBlur stdDeviation="3" result="blur-3"/>
      <feFlood flood-opacity="0.161"/>
      <feComposite operator="in" in2="blur-3"/>
      <feComposite in="SourceGraphic"/>
    </filter>
    <filter id="Path_344" x="0" y="1" width="51.354" height="27.084" filterUnits="userSpaceOnUse">
      <feOffset dy="1" input="SourceAlpha"/>
      <feGaussianBlur stdDeviation="0.5" result="blur-4"/>
      <feFlood flood-opacity="0.361"/>
      <feComposite operator="in" in2="blur-4"/>
      <feComposite in="SourceGraphic"/>
    </filter>
    <filter id="Path_473" x="23.589" y="0" width="43.569" height="21.806" filterUnits="userSpaceOnUse">
      <feOffset dy="1" input="SourceAlpha"/>
      <feGaussianBlur stdDeviation="0.5" result="blur-5"/>
      <feFlood flood-opacity="0.188"/>
      <feComposite operator="in" in2="blur-5"/>
      <feComposite in="SourceGraphic"/>
    </filter>
    <filter id="entastico" x="65.351" y="24.784" width="171" height="56" filterUnits="userSpaceOnUse">
      <feOffset dy="3" input="SourceAlpha"/>
      <feGaussianBlur stdDeviation="1.5" result="blur-6"/>
      <feFlood flood-opacity="0.102"/>
      <feComposite operator="in" in2="blur-6"/>
      <feComposite in="SourceGraphic"/>
    </filter>
  </defs>
  <g id="Group_411" data-name="Group 411" transform="translate(-11.009 -7.146)">
    <g id="logo" transform="translate(12.509 8.646)">
      <g id="road" transform="translate(0)">
        <g class="cls-15" transform="matrix(1, 0, 0, 1, -1.5, -1.5)">
          <path id="Path_341-2" data-name="Path 341" class="cls-1" d="M-26.641,30.313s11-8.6,22.021-17.56c7.648-.979,23.279,6.271,26.982,13.847h0l.415.833c9.581,19.189-9.225,30.056-9.225,30.056l23.618,45.6L-.606,73.006-12.312,100.1Z" transform="translate(38.07 -8.83)"/>
        </g>
        <g id="Group_253" data-name="Group 253" transform="matrix(0.999, -0.035, 0.035, 0.999, 12.129, 16.612)">
          <g class="cls-14" transform="matrix(1, 0.04, -0.04, 1, -12.99, -18.59)">
            <path id="Path_334-2" data-name="Path 334" d="M0,0Z" transform="translate(14.72 49.13) rotate(-2.01)"/>
          </g>
          <g id="Path_420" data-name="Path 420" transform="translate(14.049 0)">
            <path id="Path_560" data-name="Path 560" class="cls-2" d="M9.318,18.636a9.318,9.318,0,1,1,9.318-9.318A9.328,9.328,0,0,1,9.318,18.636Z" transform="translate(1.003 1.003)"/>
            <path id="Path_561" data-name="Path 561" class="cls-3" d="M10.321,2.007a8.314,8.314,0,1,0,8.314,8.314,8.324,8.324,0,0,0-8.314-8.314m0-2.007A10.321,10.321,0,1,1,0,10.321,10.321,10.321,0,0,1,10.321,0Z" transform="translate(0 0)"/>
          </g>
          <g id="Path_340" data-name="Path 340" transform="translate(20.365 2.64)">
            <path id="Path_562" data-name="Path 562" class="cls-4" d="M2.9,36.467a2.908,2.908,0,0,1-2.9-2.9V2.9a2.9,2.9,0,1,1,5.809,0V33.562A2.908,2.908,0,0,1,2.9,36.467Z" transform="translate(0.502 0.502)"/>
            <path id="Path_563" data-name="Path 563" class="cls-5" d="M3.406,1A2.406,2.406,0,0,0,1,3.406V34.064a2.4,2.4,0,1,0,4.806,0V3.406A2.406,2.406,0,0,0,3.406,1m0-1A3.406,3.406,0,0,1,6.813,3.406V34.064a3.406,3.406,0,1,1-6.813,0V3.406A3.406,3.406,0,0,1,3.406,0Z" transform="translate(0 0)"/>
          </g>
          <path id="Path_335" data-name="Path 335" class="cls-4" d="M0,0H7.789V2.169H0Z" transform="translate(15.5 33.996)"/>
          <path id="Path_338" data-name="Path 338" class="cls-4" d="M0,0H6.823V2.422H0Z" transform="translate(16.476 28.427)"/>
          <path id="Path_336" data-name="Path 336" class="cls-4" d="M0,0H7.957V2.513H0Z" transform="translate(16.361 31.961)"/>
          <path id="Path_337" data-name="Path 337" class="cls-4" d="M0,0H6.4V1.949H0Z" transform="translate(17.662 30.416)"/>
          <circle id="Ellipse_27" data-name="Ellipse 27" class="cls-4" cx="9.193" cy="9.193" r="9.193" transform="translate(14.91 1.315)"/>
          <g class="cls-13" transform="matrix(1, 0.04, -0.04, 1, -12.99, -18.59)">
            <path id="Path_357-2" data-name="Path 357" class="cls-6" d="M3.976,0A3.976,3.976,0,1,1,0,3.976,3.976,3.976,0,0,1,3.976,0Z" transform="translate(34.36 24.03) rotate(-2.01)"/>
          </g>
        </g>
        <rect id="Rectangle_92" data-name="Rectangle 92" class="cls-7" width="2.007" height="32.109" rx="0.5" transform="matrix(0.927, 0.375, -0.375, 0.927, 35.457, 62.374)"/>
        <path id="Path_421" data-name="Path 421" class="cls-7" d="M1,0a1.032,1.032,0,0,1,1,1.06V47.638A1.032,1.032,0,0,1,1,48.7a1.032,1.032,0,0,1-1-1.06V1.06A1.032,1.032,0,0,1,1,0Z" transform="matrix(-0.643, 0.766, -0.766, -0.643, 73.541, 93.087)"/>
        <g id="_158939" data-name="158939" transform="translate(0)">
          <g class="cls-12" transform="matrix(1, 0, 0, 1, -1.5, -1.5)">
            <path id="Path_344-2" data-name="Path 344" class="cls-8" d="M51.387-773.969,32.912-759.52l3.376.014,7,.59,13.257-9.97c3.327-2.5,8.792-6.894,11.664-9.053l5.218-3.921-1.156,2.284c5.619,4.485,9.209,7.315,8.772,6.916a.692.692,0,0,1-.2-.243c0-.03.014-.123.018-.213v-.161l.219.177c.118.1.2.152.181.125-.042-.07-4.214-3.6-8.531-7.225L69.412-783H62.661Z" transform="translate(-31.41 784.5)"/>
          </g>
          <path id="Path_348" data-name="Path 348" d="M905.3-570.749a.96.96,0,0,0,.289.251c.038,0-.038-.113-.163-.251a.956.956,0,0,0-.289-.251C905.1-571,905.169-570.888,905.3-570.749Z" transform="translate(-815.546 589.806)"/>
          <path id="Path_349" data-name="Path 349" d="M904-560.929a.722.722,0,0,0,.227.213c.189.162.2.151.038-.05S904-561.026,904-560.929Z" transform="translate(-814.563 581.04)"/>
          <path id="Path_352" data-name="Path 352" d="M1121-480.963a5.715,5.715,0,0,0,.729.578l.714.528-.626-.578C1121.261-480.939,1121-481.113,1121-480.963Z" transform="translate(-1004.339 511.111)"/>
          <g class="cls-11" transform="matrix(1, 0, 0, 1, -1.5, -1.5)">
            <path id="Path_473-2" data-name="Path 473" class="cls-8" d="M62.562-775.01l13.676,10.816-8.163-.565H65.3l-9.392-7.13c-2.732-2.053-6.9-5.184-9.26-6.957l-4.284-3.22-2.346,1.875c-4.614,3.683-4.528,3.23-4.17,2.9a.565.565,0,0,0,.165-.2c0-.025-.012-.1-.015-.175v-.132l-.18.145c-.1.082-.165.125-.148.1a46.158,46.158,0,0,0,3.971-3.155l2.734-2.3H53.051Z" transform="translate(-10.58 783.5)"/>
          </g>
        </g>
        <g class="cls-10" transform="matrix(1, 0, 0, 1, -1.5, -1.5)">
          <text id="entastico-2" data-name="entastico" class="cls-9" transform="translate(69.85 63.28)"><tspan x="0" y="0">entastico</tspan></text>
        </g>
      </g>
    </g>
  </g>
</svg>
