<svg xmlns="http://www.w3.org/2000/svg" width="214.848" height="82.556" viewBox="0 0 214.848 82.556">
    <defs>
        <filter id="Path_341" width="58.128" height="79.625" x="6.257" y="2.932" filterUnits="userSpaceOnUse">
            <feOffset dy="3"/>
            <feGaussianBlur result="blur" stdDeviation="1"/>
            <feFlood flood-opacity=".322"/>
            <feComposite in2="blur" operator="in"/>
            <feComposite in="SourceGraphic"/>
        </filter>
        <filter id="Path_334" width="18" height="18" x="3.193" y="33.849" filterUnits="userSpaceOnUse">
            <feOffset dy="3"/>
            <feGaussianBlur result="blur-2" stdDeviation="3"/>
            <feFlood flood-opacity=".161"/>
            <feComposite in2="blur-2" operator="in"/>
            <feComposite in="SourceGraphic"/>
        </filter>
        <filter id="Path_357" width="24.658" height="24.658" x="19.086" y="13.312" filterUnits="userSpaceOnUse">
            <feOffset dy="3"/>
            <feGaussianBlur result="blur-3" stdDeviation="3"/>
            <feFlood flood-opacity=".161"/>
            <feComposite in2="blur-3" operator="in"/>
            <feComposite in="SourceGraphic"/>
        </filter>
        <filter id="Path_344" width="42.123" height="22.486" x="0" y=".809" filterUnits="userSpaceOnUse">
            <feOffset dy="1"/>
            <feGaussianBlur result="blur-4" stdDeviation=".5"/>
            <feFlood flood-opacity=".361"/>
            <feComposite in2="blur-4" operator="in"/>
            <feComposite in="SourceGraphic"/>
        </filter>
        <filter id="Path_473" width="35.824" height="18.216" x="19.085" y="0" filterUnits="userSpaceOnUse">
            <feOffset dy="1"/>
            <feGaussianBlur result="blur-5" stdDeviation=".5"/>
            <feFlood flood-opacity=".188"/>
            <feComposite in2="blur-5" operator="in"/>
            <feComposite in="SourceGraphic"/>
        </filter>
        <style>
            .cls-4{fill:#e71d36}.cls-7{fill:#2ec4b6}.cls-8{fill:#ff9f1c}
        </style>
    </defs>
    <g id="Group_411" data-name="Group 411" transform="translate(7.991 110.854)">
        <g id="logo" transform="translate(-6.491 -110.354)">
            <g id="road">
                <g filter="url(#Path_341)" transform="translate(-1.5 -.5)">
                    <path id="Path_341-2" fill="#fff" stroke="rgba(255,255,255,0.57)" stroke-width="0.5px" d="M-26.641 26.943s8.9-6.959 17.817-14.208c6.188-.792 18.835 5.074 21.831 11.2l.336.674c7.752 15.526-7.464 24.319-7.464 24.319l19.11 36.894-30.565-24.336-9.471 21.92z" data-name="Path 341" transform="translate(36.17 -9.47)"/>
                </g>
                <g id="Group_253" data-name="Group 253" transform="rotate(-2 411.926 -273.158)">
                    <g filter="url(#Path_334)" transform="translate(-10.79 -15.14)"/>
                    <g id="Path_420" data-name="Path 420" transform="translate(11.367)">
                        <path id="Path_560" fill="#f25757" d="M7.539 15.078a7.539 7.539 0 1 1 7.539-7.539 7.548 7.548 0 0 1-7.539 7.539z" data-name="Path 560" transform="translate(.812 .812)"/>
                        <path id="Path_561" fill="#dedede" d="M8.351 1.624a6.727 6.727 0 1 0 6.727 6.727 6.735 6.735 0 0 0-6.727-6.727m0-1.624A8.351 8.351 0 1 1 0 8.351 8.351 8.351 0 0 1 8.351 0z" data-name="Path 561"/>
                    </g>
                    <g id="Path_340" data-name="Path 340" transform="translate(16.477 2.136)">
                        <path id="Path_562" d="M2.35 29.505A2.353 2.353 0 0 1 0 27.155V2.35a2.35 2.35 0 1 1 4.7 0v24.8a2.353 2.353 0 0 1-2.35 2.355z" class="cls-4" data-name="Path 562" transform="translate(.406 .406)"/>
                        <path id="Path_563" fill="#d7d7d7" d="M2.756.812A1.946 1.946 0 0 0 .812 2.756v24.8a1.944 1.944 0 1 0 3.888 0v-24.8A1.946 1.946 0 0 0 2.756.812m0-.812a2.756 2.756 0 0 1 2.756 2.756v24.8a2.756 2.756 0 1 1-5.512 0v-24.8A2.756 2.756 0 0 1 2.756 0z" data-name="Path 563"/>
                    </g>
                    <path id="Path_335" d="M0 0h6.3v1.755H0z" class="cls-4" data-name="Path 335" transform="translate(12.541 27.506)"/>
                    <path id="Path_338" d="M0 0h5.521v1.96H0z" class="cls-4" data-name="Path 338" transform="translate(13.33 23.001)"/>
                    <path id="Path_336" d="M0 0h6.438v2.033H0z" class="cls-4" data-name="Path 336" transform="translate(13.238 25.86)"/>
                    <path id="Path_337" d="M0 0h5.176v1.577H0z" class="cls-4" data-name="Path 337" transform="translate(14.29 24.61)"/>
                    <circle id="Ellipse_27" cx="7.438" cy="7.438" r="7.438" class="cls-4" data-name="Ellipse 27" transform="translate(12.064 1.064)"/>
                    <g filter="url(#Path_357)" transform="translate(-10.79 -15.14)">
                        <path id="Path_357-2" fill="#fff" d="M3.217 0A3.217 3.217 0 1 1 0 3.217 3.217 3.217 0 0 1 3.217 0z" data-name="Path 357" transform="rotate(-2.01 570.983 -790.864)"/>
                    </g>
                </g>
                <rect id="Rectangle_92" width="1.624" height="25.98" class="cls-7" data-name="Rectangle 92" rx=".5" transform="rotate(22.03 -117.395 99.354)"/>
                <path id="Path_421" d="M.812 0a.835.835 0 0 1 .812.857v37.687a.835.835 0 0 1-.812.857.835.835 0 0 1-.812-.857V.857A.835.835 0 0 1 .812 0z" class="cls-7" data-name="Path 421" transform="rotate(130.02 12.005 51.93)"/>
                <g id="_158939" data-name="158939">
                    <g filter="url(#Path_344)" transform="translate(-1.5 -.5)">
                        <path id="Path_344-2" d="M47.86-775.693L32.912-764l2.731.012 5.667.477 10.726-8.067c2.692-2.023 7.114-5.578 9.437-7.325l4.222-3.173-.935 1.848c4.546 3.629 7.451 5.919 7.1 5.6a.56.56 0 0 1-.162-.2c0-.024.011-.1.015-.172v-.13l.177.143c.1.081.162.123.146.1-.034-.057-3.41-2.911-6.9-5.846L62.444-783h-5.462z" class="cls-8" data-name="Path 344" transform="translate(-31.41 784.31)"/>
                    </g>
                    <path id="Path_348" d="M905.263-570.8a.773.773 0 0 0 .234.2c.031 0-.031-.091-.132-.2a.778.778 0 0 0-.234-.2c-.031 0 .029.091.132.2z" data-name="Path 348" transform="translate(-832.647 587.025)"/>
                    <path id="Path_349" d="M904-560.938a.583.583 0 0 0 .184.172c.153.131.162.122.031-.041s-.215-.209-.215-.131z" data-name="Path 349" transform="translate(-831.637 578.018)"/>
                    <path id="Path_352" d="M1121-480.973a4.609 4.609 0 0 0 .59.468l.578.427-.506-.468c-.451-.407-.662-.548-.662-.427z" data-name="Path 352" transform="translate(-1026.61 506.175)"/>
                    <g filter="url(#Path_473)" transform="translate(-1.5 -.5)">
                        <path id="Path_473-2" d="M57.428-776.535l11.065 8.751-6.6-.457h-2.247l-7.6-5.769c-2.21-1.661-5.585-4.194-7.493-5.629l-3.466-2.6-1.9 1.517c-3.733 2.98-3.664 2.613-3.374 2.348a.457.457 0 0 0 .133-.161c0-.02-.009-.081-.012-.141v-.107l-.145.117c-.079.067-.133.1-.12.083a37.308 37.308 0 0 0 3.213-2.553L41.1-783h8.636z" class="cls-8" data-name="Path 473" transform="translate(-15.08 783.5)"/>
                    </g>
                </g>
                <text id="entastico" fill="#fff" font-family="Roboto-Light, Roboto" font-size="38px" font-weight="300" transform="translate(59.348 65.675)">
                    <tspan x="0" y="0">entastico</tspan>
                </text>
            </g>
        </g>
    </g>
</svg>
