<svg xmlns="http://www.w3.org/2000/svg" width="31.21" height="28.834" viewBox="0 0 31.21 28.834">
    <defs>
        <filter id="prefix__Path_478" width="31.21" height="26.185" x="0" y="2.648" filterUnits="userSpaceOnUse">
            <feOffset dy="4"/>
            <feGaussianBlur result="blur" stdDeviation="3"/>
            <feFlood flood-opacity=".161"/>
            <feComposite in2="blur" operator="in"/>
            <feComposite in="SourceGraphic"/>
        </filter>
        <style>
            .prefix__cls-1{fill:#fff}
        </style>
    </defs>
    <g id="prefix__social" transform="translate(9)">
        <path id="prefix__Path_477" d="M94.663 3.814a3.69 3.69 0 0 1-1.117 2.7 3.69 3.69 0 0 1-2.7 1.117 3.691 3.691 0 0 1-2.694-1.121 3.69 3.69 0 0 1-1.117-2.7 3.69 3.69 0 0 1 1.117-2.7A3.689 3.689 0 0 1 90.847 0a3.691 3.691 0 0 1 2.7 1.117 3.69 3.69 0 0 1 1.116 2.697zm0 0" class="prefix__cls-1" data-name="Path 477" transform="translate(-84.344)"/>
        <g transform="translate(-9)">
            <path id="prefix__Path_478-2" d="M13.211 252.782a2.629 2.629 0 0 1-.781 1.989 2.811 2.811 0 0 1-2.012.734H2.793a2.81 2.81 0 0 1-2.012-.734A2.628 2.628 0 0 1 0 252.782c0-.318.011-.632.032-.935a9.361 9.361 0 0 1 .128-1 7.9 7.9 0 0 1 .246-1.006 4.989 4.989 0 0 1 .414-.941 3.551 3.551 0 0 1 .623-.813 2.75 2.75 0 0 1 .9-.563 3.1 3.1 0 0 1 1.144-.207 1.159 1.159 0 0 1 .619.263l.646.417a3.689 3.689 0 0 0 .835.368 3.33 3.33 0 0 0 .921.163h.1a3.322 3.322 0 0 0 1.022-.165 3.69 3.69 0 0 0 .832-.363c.243-.155.46-.3.646-.416a1.158 1.158 0 0 1 .62-.263 3.1 3.1 0 0 1 1.143.207 2.752 2.752 0 0 1 .9.563 3.538 3.538 0 0 1 .624.813 4.972 4.972 0 0 1 .414.938 7.891 7.891 0 0 1 .246 1.006 9.448 9.448 0 0 1 .128 1c.021.3.032.616.032.935zm0 0" class="prefix__cls-1" data-name="Path 478" transform="translate(9 -239.67)"/>
        </g>
        <path id="prefix__Path_479" d="M210.3 7.627V0a3.691 3.691 0 0 1 2.7 1.117 3.69 3.69 0 0 1 1.117 2.7 3.69 3.69 0 0 1-1.117 2.7 3.69 3.69 0 0 1-2.7 1.117zm0 0" data-name="Path 479" transform="translate(-203.79)" style="fill:rgba(255,255,255,.52)"/>
        <path id="prefix__Path_480" d="M217 252.782a2.629 2.629 0 0 1-.781 1.989 2.811 2.811 0 0 1-2.012.734h-3.914v-6.975h.1a3.322 3.322 0 0 0 1.022-.165 3.689 3.689 0 0 0 .835-.368c.243-.155.46-.3.646-.416a1.158 1.158 0 0 1 .62-.263 3.1 3.1 0 0 1 1.143.207 2.753 2.753 0 0 1 .9.563 3.539 3.539 0 0 1 .624.813 4.969 4.969 0 0 1 .414.938 7.9 7.9 0 0 1 .246 1.006 9.451 9.451 0 0 1 .128 1c.018.304.029.618.029.937zm0 0" data-name="Path 480" transform="translate(-203.789 -239.672)" style="fill:rgba(255,255,255,.36)"/>
    </g>
</svg>
