<svg xmlns="http://www.w3.org/2000/svg" width="86.665" height="97.302" viewBox="0 0 86.665 97.302">
    <defs>
        <filter id="prefix__Path_478" width="86.665" height="60.546" x="0" y="36.756" filterUnits="userSpaceOnUse">
            <feOffset dy="6"/>
            <feGaussianBlur result="blur" stdDeviation="3"/>
            <feFlood flood-opacity=".161"/>
            <feComposite in2="blur" operator="in"/>
            <feComposite in="SourceGraphic"/>
        </filter>
    </defs>
    <g id="prefix__social" transform="translate(9)">
        <path id="prefix__Path_477" d="M126.681 19.822a19.182 19.182 0 0 1-5.807 14.016 19.181 19.181 0 0 1-14.016 5.807h-.009a19.184 19.184 0 0 1-14.006-5.807 19.18 19.18 0 0 1-5.807-14.016 19.177 19.177 0 0 1 5.806-14.015A19.176 19.176 0 0 1 106.848 0h.009a19.187 19.187 0 0 1 14.016 5.807 19.18 19.18 0 0 1 5.808 14.015zm0 0" data-name="Path 477" transform="translate(-73.045)" style="fill:#fff"/>
        <g transform="translate(-9)">
            <path id="prefix__Path_478-2" d="M68.666 275.712a13.664 13.664 0 0 1-4.059 10.339 14.611 14.611 0 0 1-10.46 3.815H14.518a14.6 14.6 0 0 1-10.458-3.815A13.661 13.661 0 0 1 0 275.712c0-1.653.055-3.288.164-4.86a48.658 48.658 0 0 1 .667-5.2 41.05 41.05 0 0 1 1.278-5.227 25.927 25.927 0 0 1 2.149-4.878 18.461 18.461 0 0 1 3.24-4.224 14.293 14.293 0 0 1 4.657-2.926 16.1 16.1 0 0 1 5.945-1.077c.84 0 1.653.344 3.22 1.364.981.64 2.111 1.368 3.359 2.166a19.173 19.173 0 0 0 4.341 1.913 17.306 17.306 0 0 0 4.785.849q.263.009.526.009a17.266 17.266 0 0 0 5.312-.858 19.175 19.175 0 0 0 4.342-1.913c1.261-.806 2.391-1.533 3.357-2.164 1.569-1.023 2.38-1.366 3.222-1.366a16.108 16.108 0 0 1 5.943 1.075 14.305 14.305 0 0 1 4.656 2.926 18.4 18.4 0 0 1 3.241 4.224 25.838 25.838 0 0 1 2.149 4.876 41.017 41.017 0 0 1 1.28 5.23 49.116 49.116 0 0 1 .666 5.2c.111 1.567.166 3.2.168 4.861zm0 0" data-name="Path 478" transform="translate(9 -207.56)" style="fill:#6aa9ff"/>
        </g>
        <path id="prefix__Path_479" d="M210.3 39.644h-.009V0h.009a19.187 19.187 0 0 1 14.016 5.807 19.18 19.18 0 0 1 5.807 14.014 19.182 19.182 0 0 1-5.807 14.016 19.181 19.181 0 0 1-14.016 5.807zm0 0" data-name="Path 479" transform="translate(-176.49)" style="fill:#efefef"/>
        <path id="prefix__Path_480" d="M245.154 275.712a13.663 13.663 0 0 1-4.059 10.339 14.61 14.61 0 0 1-10.46 3.815h-20.342v-36.253q.263.009.526.009a17.264 17.264 0 0 0 5.312-.858 19.169 19.169 0 0 0 4.342-1.913c1.261-.806 2.391-1.533 3.357-2.164 1.568-1.023 2.38-1.366 3.222-1.366a16.108 16.108 0 0 1 5.943 1.075 14.306 14.306 0 0 1 4.656 2.926 18.392 18.392 0 0 1 3.241 4.224 25.84 25.84 0 0 1 2.149 4.876 41.026 41.026 0 0 1 1.28 5.23 49.13 49.13 0 0 1 .666 5.2c.111 1.567.166 3.2.168 4.861zm0 0" data-name="Path 480" transform="translate(-176.489 -207.565)" style="fill:#2682ff"/>
    </g>
</svg>
