<svg xmlns="http://www.w3.org/2000/svg" width="79.574" height="90.802" viewBox="0 0 79.574 90.802">
    <defs>
        <filter id="prefix__Path_478" width="79.574" height="56.152" x="0" y="34.65" filterUnits="userSpaceOnUse">
            <feOffset dy="8"/>
            <feGaussianBlur result="blur" stdDeviation="3"/>
            <feFlood flood-opacity=".161"/>
            <feComposite in2="blur" operator="in"/>
            <feComposite in="SourceGraphic"/>
        </filter>
        <style>
            .prefix__cls-1{fill:#fff}
        </style>
    </defs>
    <g id="prefix__social" transform="translate(9)">
        <path id="prefix__Path_477" d="M122.587 17.775a17.2 17.2 0 0 1-5.207 12.569 17.2 17.2 0 0 1-12.569 5.207h-.011a17.2 17.2 0 0 1-12.56-5.207 17.2 17.2 0 0 1-5.207-12.569 17.2 17.2 0 0 1 5.21-12.567A17.2 17.2 0 0 1 104.8 0h.008a17.206 17.206 0 0 1 12.572 5.208 17.2 17.2 0 0 1 5.207 12.567zm0 0" class="prefix__cls-1" data-name="Path 477" transform="translate(-74.49)"/>
        <g transform="translate(-9)">
            <path id="prefix__Path_478-2" d="M61.575 272.78a12.252 12.252 0 0 1-3.64 9.272 13.1 13.1 0 0 1-9.38 3.421H13.018a13.1 13.1 0 0 1-9.378-3.421A12.251 12.251 0 0 1 0 272.78c0-1.482.049-2.948.147-4.358a43.633 43.633 0 0 1 .6-4.665 36.812 36.812 0 0 1 1.146-4.687 23.25 23.25 0 0 1 1.926-4.37 16.554 16.554 0 0 1 2.905-3.788 12.817 12.817 0 0 1 4.176-2.624 14.438 14.438 0 0 1 5.33-.964 5.4 5.4 0 0 1 2.887 1.224c.88.574 1.893 1.227 3.012 1.942a17.193 17.193 0 0 0 3.892 1.716 15.519 15.519 0 0 0 4.291.761q.236.008.471.008a15.483 15.483 0 0 0 4.764-.77 17.2 17.2 0 0 0 3.894-1.716c1.131-.722 2.144-1.375 3.011-1.94a5.4 5.4 0 0 1 2.889-1.225 14.444 14.444 0 0 1 5.329.964 12.828 12.828 0 0 1 4.175 2.624 16.5 16.5 0 0 1 2.907 3.788 23.169 23.169 0 0 1 1.927 4.372 36.783 36.783 0 0 1 1.148 4.69 44.044 44.044 0 0 1 .6 4.663c.1 1.405.149 2.872.15 4.359zm0 0" class="prefix__cls-1" data-name="Path 478" transform="translate(9 -211.67)"/>
        </g>
        <path id="prefix__Path_479" d="M210.3 35.55h-.008V0h.008a17.206 17.206 0 0 1 12.569 5.207 17.2 17.2 0 0 1 5.207 12.567 17.2 17.2 0 0 1-5.207 12.569A17.2 17.2 0 0 1 210.3 35.55zm0 0" data-name="Path 479" transform="translate(-179.981)" style="fill:rgba(204,204,204,.52)"/>
        <path id="prefix__Path_480" d="M241.554 272.78a12.252 12.252 0 0 1-3.64 9.272 13.1 13.1 0 0 1-9.38 3.421h-18.241v-32.51q.236.008.471.008a15.481 15.481 0 0 0 4.764-.77 17.19 17.19 0 0 0 3.894-1.716c1.131-.722 2.144-1.375 3.011-1.94a5.4 5.4 0 0 1 2.889-1.225 14.444 14.444 0 0 1 5.329.964 12.828 12.828 0 0 1 4.175 2.624 16.492 16.492 0 0 1 2.907 3.788 23.172 23.172 0 0 1 1.927 4.372 36.786 36.786 0 0 1 1.148 4.69 44.055 44.055 0 0 1 .6 4.663c.1 1.405.149 2.872.15 4.359zm0 0" data-name="Path 480" transform="translate(-179.98 -211.67)" style="fill:rgba(204,204,204,.36)"/>
    </g>
</svg>
