<svg xmlns="http://www.w3.org/2000/svg" width="92.477" height="94.47" viewBox="0 0 92.477 94.47">
    <defs>
        <filter id="prefix__Path_485" width="92.477" height="92.47" x="0" y="2" filterUnits="userSpaceOnUse">
            <feOffset dy="8"/>
            <feGaussianBlur result="blur" stdDeviation="3"/>
            <feFlood flood-opacity=".161"/>
            <feComposite in2="blur" operator="in"/>
            <feComposite in="SourceGraphic"/>
        </filter>
        <filter id="prefix__Path_485-2" width="55.494" height="92.517" x="0" y="0" filterUnits="userSpaceOnUse">
            <feOffset dy="6"/>
            <feGaussianBlur result="blur-2" stdDeviation="3"/>
            <feFlood flood-opacity=".161"/>
            <feComposite in2="blur-2" operator="in"/>
            <feComposite in="SourceGraphic"/>
        </filter>
        <style>
            .prefix__cls-1{fill:#fff}.prefix__cls-2{fill:#d4e1f4}
        </style>
    </defs>
    <g id="prefix__transportation" transform="translate(6.736 -4.085)">
        <g id="prefix__Group_336" data-name="Group 336" transform="translate(6.082 69.569)">
            <path id="prefix__Path_481" d="M44.631 361.012l-6.386 7.761a2.856 2.856 0 0 0 .393 4.126 2.756 2.756 0 0 0 1.867.688 2.937 2.937 0 0 0 2.26-1.081l6.288-7.663a41.168 41.168 0 0 1-4.422-3.831z" class="prefix__cls-1" data-name="Path 481" transform="translate(-37.544 -361.012)"/>
            <path id="prefix__Path_482" d="M332.278 364.844l6.288 7.663a3.1 3.1 0 0 0 2.26 1.081 2.757 2.757 0 0 0 1.867-.688 2.864 2.864 0 0 0 .393-4.126l-6.386-7.761a28.193 28.193 0 0 1-4.422 3.831z" class="prefix__cls-1" data-name="Path 482" transform="translate(-276.854 -361.013)"/>
        </g>
        <g id="prefix__Group_337" data-name="Group 337" transform="translate(3.318 5.135)">
            <path id="prefix__Path_483" d="M26.035 11.387c.983-.393 1.768-.688 2.653-.982A15.534 15.534 0 0 0 0 18.756a15.634 15.634 0 0 0 6.288 12.477c.393-.786.688-1.67 1.081-2.456a38.713 38.713 0 0 1 18.666-17.39z" class="prefix__cls-2" data-name="Path 483" transform="translate(0 -3.135)"/>
            <path id="prefix__Path_484" d="M299.459 29.2a26.7 26.7 0 0 1 1.081 2.456 15.583 15.583 0 1 0-22.6-20.73 19.7 19.7 0 0 1 2.554.982A37.4 37.4 0 0 1 299.459 29.2z" class="prefix__cls-2" data-name="Path 484" transform="translate(-232.836 -3.559)"/>
        </g>
        <g transform="translate(-6.74 4.09)">
            <path id="prefix__Path_485-3" d="M88.863 51.43c-.393-.786-.688-1.67-1.081-2.456a37.771 37.771 0 0 0-18.863-17.39 27.216 27.216 0 0 0-2.554-.982 41 41 0 0 0-11.789-1.867A38.159 38.159 0 0 0 42.687 30.7c-.884.295-1.768.59-2.653.982h-.1a38.263 38.263 0 0 0-18.664 17.39 26.7 26.7 0 0 0-1.081 2.456 36.517 36.517 0 0 0-2.947 14.442A37.23 37.23 0 0 0 28.049 92.2a34.435 34.435 0 0 0 4.519 3.832 37.049 37.049 0 0 0 43.817 0 54.844 54.844 0 0 0 4.52-3.832 37.23 37.23 0 0 0 10.807-26.23 35.551 35.551 0 0 0-2.849-14.54z" data-name="Path 485" transform="translate(-8.24 -25.73)" style="fill:#ededed"/>
        </g>
        <g transform="translate(-6.74 4.09)">
            <path id="prefix__Path_485-4" d="M54.575 28.735A38.159 38.159 0 0 0 42.687 30.7c-.884.295-1.768.59-2.653.982h-.1a38.263 38.263 0 0 0-18.664 17.39 26.7 26.7 0 0 0-1.081 2.456 36.517 36.517 0 0 0-2.947 14.442A37.23 37.23 0 0 0 28.049 92.2a34.435 34.435 0 0 0 4.519 3.832c10.89 7.83 21.915 7.271 21.909 7.172s.514-74.432.098-74.469z" class="prefix__cls-1" data-name="Path 485" transform="translate(-8.24 -25.73)"/>
        </g>
        <path id="prefix__Path_486" d="M200.956 134.9h14.737a2.947 2.947 0 0 0 0-5.895H203.9v-17.387a2.947 2.947 0 0 0-5.895 0v20.337a2.9 2.9 0 0 0 2.951 2.945z" data-name="Path 486" transform="translate(-161.752 -86.554)" style="fill:#00bbd3"/>
    </g>
</svg>
