<svg xmlns="http://www.w3.org/2000/svg" width="201" height="50" viewBox="0 0 201 50">
    <g id="prefix__twitter" transform="translate(-.001)">
        <circle id="prefix__Ellipse_42" cx="25" cy="25" r="25" data-name="Ellipse 42" transform="translate(.001)" style="fill:#55acee"/>
        <g id="prefix__Group_413" data-name="Group 413" transform="translate(11.347 15.304)">
            <path id="prefix__Path_570" d="M53.932 36.8a11.8 11.8 0 0 1-3.4.93 5.931 5.931 0 0 0 2.6-3.272A11.84 11.84 0 0 1 49.38 35.9a5.92 5.92 0 0 0-10.079 5.4 16.789 16.789 0 0 1-12.191-6.19 5.921 5.921 0 0 0 1.83 7.9 5.873 5.873 0 0 1-2.679-.741v.075a5.918 5.918 0 0 0 4.745 5.8 5.937 5.937 0 0 1-2.671.1 5.921 5.921 0 0 0 5.525 4.107A11.94 11.94 0 0 1 25.1 54.8a16.73 16.73 0 0 0 9.066 2.658C45.048 57.456 51 48.444 51 40.628c0-.256-.006-.512-.017-.765a11.994 11.994 0 0 0 2.949-3.063z" data-name="Path 570" transform="translate(-25.103 -34.028)" style="fill:#f1f2f2"/>
        </g>
        <path id="prefix__Path_571" d="M22.5 0A22.5 22.5 0 1 1 0 22.5 22.5 22.5 0 0 1 22.5 0z" data-name="Path 571" transform="translate(152.001 3)" style="fill:#fff"/>
        <path id="prefix__google-plus" d="M25 50A25 25 0 1 0 0 25a25.009 25.009 0 0 0 25 25zm8.923-26.785H37.5v-3.578h3.579v3.579h3.548V26.8h-3.546v3.579H37.5V26.8h-3.577zm-7.681-7.46l-3.388 3.287c-4.333-4.235-12.765-1.15-12.765 5.948 0 9.627 13.665 10.285 14.85 2.5h-7.066V23.2h11.785C31 30.187 26.481 37.5 17.873 37.5A12.481 12.481 0 0 1 5.371 25c0-11.121 13.194-16.377 20.871-9.246z" transform="translate(151.001)" style="fill:#f44336"/>
    </g>
</svg>
